# xmcd
#
# Track frame offsets:
#	150
#	16471
#	36295
#	49603
#	67529
#	80681
#	97390
#	112120
#	130020
#	145128
#	159091
#
# Disc length: 2326 seconds
#
# Revision: 0
# Processed by: cddbd v1.5.1PL0 Copyright (c) Steve Scherf et al.
# Submitted via: EasyCDDAExtractor 8.0.1.1
#
DISCID=8c09140b
DTITLE=Various Artist - Soul Sensations
DYEAR=2005
DGENRE=Blues
TTITLE0=Rickey Godfrey - Hold You To Your Promise
TTITLE1=Rickey Godfrey - Give It To A Good Man
TTITLE2=Rickey Godfrey - Come Home With Me
TTITLE3=Rickey Godfrey - Soul Mate
TTITLE4=Rickey Godfrey and Andrea Keesee - Never Let You Go
TTITLE5=Rickey Godfrey - Can't Change My Heart
TTITLE6=Rickey Godfrey - My Baby's Got It
TTITLE7=Rickey Godfrey - One Step Closer To The Blues
TTITLE8=Rickey Godfrey - Ain't Love Wonderful
TTITLE9=Rickey Godfrey - The Blues Ain't News To Me
TTITLE10=Rickey Godfrey - Hey Baby
EXTD=
EXTT0=
EXTT1=
EXTT2=
EXTT3=
EXTT4=
EXTT5=
EXTT6=
EXTT7=
EXTT8=
EXTT9=
EXTT10=
PLAYORDER=
